<svg width="21" height="20" viewBox="0 0 21 20" fill="none" xmlns="http://www.w3.org/2000/svg">
<path d="M14.1487 9.31641C15.1138 8.60877 15.711 7.42833 15.5664 6.10878C15.3688 4.30548 13.7311 2.99999 11.9171 3H4.58789V4L6.0351 4.72361C6.37389 4.893 6.58789 5.23926 6.58789 5.61803V14.382C6.58789 14.7607 6.37389 15.107 6.0351 15.2764L4.58789 16V17H12.4106C14.5144 17 16.3909 15.4525 16.5724 13.3565C16.7288 11.5508 15.6842 9.96788 14.1487 9.31641ZM9.58789 5H10.5879C11.6924 5 12.5879 5.89539 12.5879 7C12.5879 8.10455 11.6924 9 10.5879 9H9.58789V5ZM11.5879 15H9.58789V11H11.5879C12.6924 11 13.5879 11.8954 13.5879 13C13.5879 14.1046 12.6924 15 11.5879 15Z" fill="#374151"/>
</svg>
