<svg width="19" height="20" viewBox="0 0 19 20" fill="none" xmlns="http://www.w3.org/2000/svg">
<path fill-rule="evenodd" clip-rule="evenodd" d="M5.49935 0C5.32319 3.30174e-05 5.1542 0.0697821 5.0293 0.19401L1.028 4.19531C0.966249 4.25739 0.917334 4.33103 0.884046 4.41202C0.850757 4.49301 0.833747 4.57976 0.833987 4.66732V14.6673C0.833987 15.7638 1.73817 16.6654 2.83464 16.6654H12.8346C13.9311 16.6654 14.832 15.7638 14.832 14.6673V2C14.832 0.903546 13.9311 0 12.8346 0H5.49935ZM6.16602 1.33333H12.8346C13.2155 1.33333 13.5013 1.61915 13.5013 2V14.6673C13.5013 15.0482 13.2155 15.3346 12.8346 15.3346H2.83464C2.45378 15.3346 2.16732 15.0482 2.16732 14.6673V5.33464H4.16537C5.26183 5.33464 6.16602 4.43045 6.16602 3.33398V1.33333ZM4.83203 2.27865V3.33398C4.83203 3.71485 4.54624 4.00065 4.16537 4.00065H3.11003L4.83203 2.27865ZM16.166 2.66732C16.0772 2.66536 15.989 2.68116 15.9064 2.71378C15.8238 2.74641 15.7485 2.7952 15.685 2.8573C15.6216 2.9194 15.5711 2.99356 15.5367 3.07541C15.5022 3.15727 15.4845 3.24518 15.4845 3.33398C15.4845 3.42279 15.5022 3.5107 15.5367 3.59256C15.5711 3.67441 15.6216 3.74857 15.685 3.81067C15.7485 3.87277 15.8238 3.92156 15.9064 3.95418C15.989 3.98681 16.0772 4.00261 16.166 4.00065C16.5469 4.00065 16.8327 4.28647 16.8327 4.66732V17.9993C16.8327 18.3802 16.5469 18.666 16.166 18.666H5.49935C5.11849 18.666 4.83203 18.3802 4.83203 17.9993C4.83787 17.9084 4.82499 17.8172 4.7942 17.7314C4.7634 17.6456 4.71534 17.567 4.65298 17.5005C4.59063 17.4341 4.5153 17.3811 4.43165 17.3448C4.34801 17.3086 4.25782 17.2899 4.16667 17.2899C4.07552 17.2899 3.98533 17.3086 3.90169 17.3448C3.81804 17.3811 3.74271 17.4341 3.68036 17.5005C3.618 17.567 3.56994 17.6456 3.53914 17.7314C3.50834 17.8172 3.49547 17.9084 3.5013 17.9993C3.5013 19.0958 4.40288 20 5.49935 20H16.166C17.2625 20 18.1667 19.0958 18.1667 17.9993V4.66732C18.1667 3.57085 17.2625 2.66732 16.166 2.66732ZM5.49935 7.99935C5.32513 8.00326 5.15937 8.07522 5.03753 8.19981C4.9157 8.32441 4.84748 8.49175 4.84748 8.66602C4.84748 8.84028 4.9157 9.00762 5.03753 9.13222C5.15937 9.25682 5.32513 9.32877 5.49935 9.33268H10.1673C10.2561 9.33468 10.3444 9.31891 10.4271 9.2863C10.5097 9.25369 10.585 9.2049 10.6485 9.1428C10.712 9.0807 10.7625 9.00653 10.7969 8.92466C10.8314 8.84278 10.8491 8.75485 10.8491 8.66602C10.8491 8.57719 10.8314 8.48925 10.7969 8.40738C10.7625 8.3255 10.712 8.25133 10.6485 8.18923C10.585 8.12713 10.5097 8.07834 10.4271 8.04573C10.3444 8.01312 10.2561 7.99736 10.1673 7.99935H5.49935ZM5.49935 10.6667C5.41057 10.6647 5.32229 10.6805 5.23969 10.7131C5.1571 10.7458 5.08185 10.7946 5.01837 10.8567C4.95489 10.9188 4.90445 10.9929 4.87001 11.0748C4.83558 11.1566 4.81784 11.2445 4.81784 11.3333C4.81784 11.4221 4.83558 11.51 4.87001 11.5919C4.90445 11.6738 4.95489 11.7479 5.01837 11.81C5.08185 11.8721 5.1571 11.9209 5.23969 11.9535C5.32229 11.9862 5.41057 12.002 5.49935 12H8.16667C8.25545 12.002 8.34373 11.9862 8.42633 11.9535C8.50892 11.9209 8.58417 11.8721 8.64765 11.81C8.71113 11.7479 8.76157 11.6738 8.79601 11.5919C8.83044 11.51 8.84818 11.4221 8.84818 11.3333C8.84818 11.2445 8.83044 11.1566 8.79601 11.0748C8.76157 10.9929 8.71113 10.9188 8.64765 10.8567C8.58417 10.7946 8.50892 10.7458 8.42633 10.7131C8.34373 10.6805 8.25545 10.6647 8.16667 10.6667H5.49935ZM10.1667 10.6667C9.79848 10.6667 9.50001 10.9651 9.5 11.3333C9.5 11.7015 9.79848 12 10.1667 12C10.5349 12 10.8333 11.7015 10.8333 11.3333C10.8333 10.9651 10.5349 10.6667 10.1667 10.6667Z" fill="black"/>
</svg>
