<svg width="18" height="18" viewBox="0 0 18 18" fill="none" xmlns="http://www.w3.org/2000/svg">
<path d="M5.20508 3.75C5.20488 4.14782 5.04665 4.52928 4.76521 4.81044C4.48376 5.0916 4.10215 5.24945 3.70433 5.24925C3.3065 5.24905 2.92505 5.09082 2.64389 4.80938C2.36272 4.52793 2.20488 4.14632 2.20508 3.7485C2.20528 3.35067 2.3635 2.96922 2.64495 2.68806C2.92639 2.40689 3.308 2.24905 3.70583 2.24925C4.10365 2.24945 4.48511 2.40767 4.76627 2.68912C5.04743 2.97056 5.20528 3.35217 5.20508 3.75ZM5.25008 6.36H2.25008V15.75H5.25008V6.36ZM9.99008 6.36H7.00508V15.75H9.96008V10.8225C9.96008 8.0775 13.5376 7.8225 13.5376 10.8225V15.75H16.5001V9.8025C16.5001 5.175 11.2051 5.3475 9.96008 7.62L9.99008 6.36Z" fill="white"/>
</svg>
