<svg width="18" height="18" viewBox="0 0 18 18" fill="none" xmlns="http://www.w3.org/2000/svg">
<path d="M10.0266 1.5705C8.23205 1.32364 6.40878 1.73441 4.89347 2.72697C3.37815 3.71952 2.27313 5.22683 1.78245 6.97055C1.29176 8.71427 1.44855 10.5767 2.22387 12.2138C2.99918 13.8509 4.34066 15.1523 6.0006 15.8775C5.95571 15.3014 5.99691 14.7217 6.12284 14.1578C6.26159 13.5285 7.09485 10.0605 7.09485 10.0605C6.92892 9.68857 6.846 9.28497 6.85184 8.87775C6.85184 7.764 7.4946 6.933 8.2941 6.933C8.43773 6.93091 8.58012 6.95977 8.7116 7.01762C8.84308 7.07548 8.96056 7.16096 9.05606 7.26827C9.15155 7.37557 9.22282 7.50219 9.26501 7.63949C9.30721 7.7768 9.31935 7.92158 9.3006 8.064C9.3006 8.739 8.86709 9.7605 8.6406 10.719C8.59583 10.8948 8.59299 11.0786 8.6323 11.2557C8.67161 11.4328 8.75198 11.5982 8.86691 11.7385C8.98185 11.8788 9.12815 11.9902 9.29402 12.0636C9.45989 12.1371 9.64069 12.1705 9.82185 12.1613C11.2453 12.1613 12.1993 10.338 12.1993 8.1855C12.1993 6.5355 11.1066 5.2995 9.09209 5.2995C8.61013 5.28077 8.12938 5.36019 7.67904 5.53294C7.22871 5.70569 6.81818 5.96816 6.47238 6.30442C6.12659 6.64067 5.85274 7.0437 5.66746 7.48903C5.48219 7.93436 5.38935 8.4127 5.39459 8.895C5.37312 9.42999 5.54572 9.95472 5.8806 10.3725C5.94317 10.4192 5.98886 10.485 6.01078 10.5599C6.03269 10.6349 6.02964 10.7149 6.00209 10.788C5.96759 10.926 5.88059 11.2553 5.8461 11.376C5.83892 11.417 5.82223 11.4556 5.79736 11.489C5.7725 11.5223 5.74016 11.5493 5.70294 11.5678C5.66573 11.5864 5.62468 11.5959 5.58311 11.5957C5.54154 11.5954 5.5006 11.5854 5.46359 11.5665C4.42559 11.151 3.93659 10.0088 3.93659 8.7045C3.93659 6.56925 5.7246 4.01325 9.3021 4.01325C12.1491 4.01325 14.0421 6.096 14.0421 8.3235C14.0421 11.2552 12.4093 13.4595 9.9966 13.4595C9.63599 13.471 9.27829 13.3914 8.95659 13.2281C8.63489 13.0648 8.35957 12.8229 8.1561 12.525C8.1561 12.525 7.72259 14.262 7.63709 14.5905C7.46256 15.158 7.20503 15.6966 6.87284 16.1887C7.56509 16.3987 8.28434 16.5037 9.00734 16.5007C9.99253 16.5015 10.9682 16.308 11.8785 15.9312C12.7887 15.5544 13.6158 15.0017 14.3121 14.3048C15.0085 13.608 15.5606 12.7806 15.9368 11.87C16.313 10.9595 16.5058 9.98368 16.5043 8.9985C16.5034 7.18725 15.8472 5.4375 14.6568 4.07233C13.4665 2.70717 11.8224 1.8188 10.0281 1.57125L10.0266 1.5705Z" fill="white"/>
</svg>
