<svg width="21" height="21" viewBox="0 0 21 21" fill="none" xmlns="http://www.w3.org/2000/svg">
<path fill-rule="evenodd" clip-rule="evenodd" d="M13.2878 12.6627H13.9791L17.6891 16.3902C18.0478 16.7489 18.0478 17.3352 17.6891 17.6939C17.3303 18.0527 16.7441 18.0527 16.3853 17.6939L12.6666 13.9752V13.2839L12.4303 13.0389C11.2053 14.0889 9.53406 14.6314 7.75781 14.3339C5.32531 13.9227 3.38281 11.8927 3.08531 9.44266C2.63031 5.74141 5.74531 2.62641 9.44656 3.08141C11.8966 3.37891 13.9266 5.32141 14.3378 7.75391C14.6353 9.53016 14.0928 11.2014 13.0428 12.4264L13.2878 12.6627ZM4.79156 8.72516C4.79156 10.9039 6.55031 12.6627 8.72906 12.6627C10.9078 12.6627 12.6666 10.9039 12.6666 8.72516C12.6666 6.54641 10.9078 4.78766 8.72906 4.78766C6.55031 4.78766 4.79156 6.54641 4.79156 8.72516Z" fill="#1B1B1B"/>
</svg>
