<svg width="18" height="19" viewBox="0 0 18 19" fill="none" xmlns="http://www.w3.org/2000/svg">
<path d="M10.125 2.75H10.625C10.625 2.47386 10.4011 2.25 10.125 2.25V2.75ZM7.875 2.75V2.25C7.59886 2.25 7.375 2.47386 7.375 2.75H7.875ZM10.125 4.37082H9.625C9.625 4.60586 9.78871 4.80918 10.0184 4.85931L10.125 4.37082ZM11.831 5.07796L11.5611 5.4988C11.7589 5.62571 12.0184 5.59771 12.1846 5.43151L11.831 5.07796ZM12.9775 3.93153L13.331 3.57798C13.1358 3.38272 12.8192 3.38272 12.6239 3.57798L12.9775 3.93153ZM14.5685 5.52252L14.922 5.87608C15.0158 5.78231 15.0685 5.65513 15.0685 5.52252C15.0685 5.38992 15.0158 5.26274 14.922 5.16897L14.5685 5.52252ZM13.422 6.66895L13.0685 6.3154C12.9023 6.48159 12.8743 6.74111 13.0012 6.93894L13.422 6.66895ZM14.1292 8.375L13.6407 8.48165C13.6908 8.71129 13.8941 8.875 14.1292 8.875V8.375ZM15.75 8.375H16.25C16.25 8.09886 16.0261 7.875 15.75 7.875V8.375ZM15.75 10.625V11.125C16.0261 11.125 16.25 10.9011 16.25 10.625H15.75ZM14.1292 10.625V10.125C13.8941 10.125 13.6908 10.2887 13.6407 10.5184L14.1292 10.625ZM13.422 12.3311L13.0012 12.0611C12.8743 12.2589 12.9023 12.5184 13.0685 12.6846L13.422 12.3311ZM14.5685 13.4775L14.922 13.831C15.1173 13.6358 15.1173 13.3192 14.922 13.1239L14.5685 13.4775ZM12.9775 15.0685L12.6239 15.422C12.7177 15.5158 12.8449 15.5685 12.9775 15.5685C13.1101 15.5685 13.2373 15.5158 13.331 15.422L12.9775 15.0685ZM11.831 13.922L12.1846 13.5685C12.0184 13.4023 11.7589 13.3743 11.5611 13.5012L11.831 13.922ZM10.125 14.6292L10.0184 14.1407C9.78871 14.1908 9.625 14.3941 9.625 14.6292H10.125ZM10.125 16.25V16.75C10.4011 16.75 10.625 16.5261 10.625 16.25H10.125ZM7.875 16.25H7.375C7.375 16.5261 7.59886 16.75 7.875 16.75V16.25ZM7.875 14.6292H8.375C8.375 14.3941 8.21129 14.1908 7.98165 14.1407L7.875 14.6292ZM6.16895 13.922L6.43894 13.5012C6.24111 13.3743 5.98159 13.4023 5.8154 13.5685L6.16895 13.922ZM5.02252 15.0685L4.66897 15.422C4.86423 15.6173 5.18082 15.6173 5.37608 15.422L5.02252 15.0685ZM3.43153 13.4775L3.07798 13.1239C2.98421 13.2177 2.93153 13.3449 2.93153 13.4775C2.93153 13.6101 2.98421 13.7373 3.07798 13.831L3.43153 13.4775ZM4.57796 12.3311L4.93151 12.6846C5.09771 12.5184 5.12571 12.2589 4.9988 12.0611L4.57796 12.3311ZM3.87082 10.625L4.35931 10.5184C4.30918 10.2887 4.10586 10.125 3.87082 10.125V10.625ZM2.25 10.625H1.75C1.75 10.9011 1.97386 11.125 2.25 11.125V10.625ZM2.25 8.375V7.875C1.97386 7.875 1.75 8.09886 1.75 8.375H2.25ZM3.87082 8.375V8.875C4.10586 8.875 4.30918 8.71129 4.35931 8.48165L3.87082 8.375ZM4.57796 6.66895L4.9988 6.93894C5.12571 6.74111 5.09771 6.48159 4.93151 6.3154L4.57796 6.66895ZM3.43153 5.52252L3.07798 5.16897C2.98421 5.26274 2.93153 5.38992 2.93153 5.52252C2.93153 5.65513 2.98421 5.78231 3.07798 5.87608L3.43153 5.52252ZM5.02252 3.93153L5.37608 3.57798C5.28231 3.48421 5.15513 3.43153 5.02252 3.43153C4.88992 3.43153 4.76274 3.48421 4.66897 3.57798L5.02252 3.93153ZM6.16895 5.07796L5.8154 5.43151C5.98159 5.59771 6.24111 5.62571 6.43894 5.4988L6.16895 5.07796ZM7.875 4.37082L7.98165 4.85931C8.21129 4.80918 8.375 4.60586 8.375 4.37082H7.875ZM10.125 2.25H7.875V3.25H10.125V2.25ZM10.625 4.37082V2.75H9.625V4.37082H10.625ZM12.101 4.65712C11.5378 4.29575 10.9069 4.02976 10.2316 3.88232L10.0184 4.85931C10.5752 4.98089 11.0957 5.20027 11.5611 5.4988L12.101 4.65712ZM12.1846 5.43151L13.331 4.28509L12.6239 3.57798L11.4775 4.72441L12.1846 5.43151ZM12.6239 4.28509L14.2149 5.87608L14.922 5.16897L13.331 3.57798L12.6239 4.28509ZM14.2149 5.16897L13.0685 6.3154L13.7756 7.0225L14.922 5.87608L14.2149 5.16897ZM14.6177 8.26835C14.4702 7.59306 14.2043 6.96225 13.8429 6.39896L13.0012 6.93894C13.2997 7.40427 13.5191 7.92477 13.6407 8.48165L14.6177 8.26835ZM15.75 7.875H14.1292V8.875H15.75V7.875ZM16.25 10.625V8.375H15.25V10.625H16.25ZM14.1292 11.125H15.75V10.125H14.1292V11.125ZM13.8429 12.601C14.2043 12.0378 14.4702 11.4069 14.6177 10.7316L13.6407 10.5184C13.5191 11.0752 13.2997 11.5957 13.0012 12.0611L13.8429 12.601ZM14.922 13.1239L13.7756 11.9775L13.0685 12.6846L14.2149 13.831L14.922 13.1239ZM13.331 15.422L14.922 13.831L14.2149 13.1239L12.6239 14.7149L13.331 15.422ZM11.4775 14.2756L12.6239 15.422L13.331 14.7149L12.1846 13.5685L11.4775 14.2756ZM10.2316 15.1177C10.9069 14.9702 11.5378 14.7043 12.101 14.3429L11.5611 13.5012C11.0957 13.7997 10.5752 14.0191 10.0184 14.1407L10.2316 15.1177ZM10.625 16.25V14.6292H9.625V16.25H10.625ZM7.875 16.75H10.125V15.75H7.875V16.75ZM7.375 14.6292V16.25H8.375V14.6292H7.375ZM5.89896 14.3429C6.46225 14.7043 7.09306 14.9702 7.76835 15.1177L7.98165 14.1407C7.42477 14.0191 6.90427 13.7997 6.43894 13.5012L5.89896 14.3429ZM5.37608 15.422L6.5225 14.2756L5.8154 13.5685L4.66897 14.7149L5.37608 15.422ZM3.07798 13.831L4.66897 15.422L5.37608 14.7149L3.78509 13.1239L3.07798 13.831ZM4.22441 11.9775L3.07798 13.1239L3.78509 13.831L4.93151 12.6846L4.22441 11.9775ZM3.38232 10.7316C3.52976 11.4069 3.79575 12.0378 4.15712 12.601L4.9988 12.0611C4.70027 11.5957 4.48089 11.0752 4.35931 10.5184L3.38232 10.7316ZM2.25 11.125H3.87082V10.125H2.25V11.125ZM1.75 8.375V10.625H2.75V8.375H1.75ZM3.87082 7.875H2.25V8.875H3.87082V7.875ZM4.15712 6.39896C3.79575 6.96225 3.52976 7.59306 3.38232 8.26835L4.35931 8.48165C4.48089 7.92477 4.70027 7.40428 4.9988 6.93894L4.15712 6.39896ZM3.07798 5.87608L4.22441 7.0225L4.93151 6.3154L3.78509 5.16897L3.07798 5.87608ZM4.66897 3.57798L3.07798 5.16897L3.78509 5.87608L5.37608 4.28509L4.66897 3.57798ZM6.5225 4.72441L5.37608 3.57798L4.66897 4.28509L5.8154 5.43151L6.5225 4.72441ZM7.76835 3.88232C7.09306 4.02976 6.46225 4.29575 5.89896 4.65712L6.43894 5.4988C6.90427 5.20027 7.42477 4.98089 7.98165 4.85931L7.76835 3.88232ZM7.375 2.75V4.37082H8.375V2.75H7.375Z" fill="black"/>
<circle cx="9" cy="9.5" r="2.25" stroke="black"/>
</svg>
