<svg width="21" height="20" viewBox="0 0 21 20" fill="none" xmlns="http://www.w3.org/2000/svg">
<path fill-rule="evenodd" clip-rule="evenodd" d="M11.5293 4H14.9113C15.29 4 15.6363 4.21399 15.8057 4.5528L16.5293 6H17.5293V2H10.5293H3.5293V6H4.5293L5.25293 4.5528C5.42231 4.21399 5.76856 4 6.14734 4H9.5293V9H2.5293V11H18.5293V9H11.5293V4ZM11.5293 15.2792V13H9.5293V15.2792C9.5293 15.7097 9.25385 16.0918 8.84552 16.2279L6.5293 17V18H10.5293H14.5293V17L12.2131 16.2279C11.8047 16.0918 11.5293 15.7097 11.5293 15.2792Z" fill="#374151"/>
</svg>
