<svg width="18" height="19" viewBox="0 0 18 19" fill="none" xmlns="http://www.w3.org/2000/svg">
<path fill-rule="evenodd" clip-rule="evenodd" d="M8.99911 5.78418C6.94687 5.78418 5.2832 7.44785 5.2832 9.50009C5.2832 11.5523 6.94687 13.216 8.99911 13.216C11.0514 13.216 12.715 11.5523 12.715 9.50009C12.715 7.44785 11.0514 5.78418 8.99911 5.78418ZM4.5332 9.50009C4.5332 7.03364 6.53266 5.03418 8.99911 5.03418C11.4656 5.03418 13.465 7.03364 13.465 9.50009C13.465 11.9665 11.4656 13.966 8.99911 13.966C6.53266 13.966 4.5332 11.9665 4.5332 9.50009Z" fill="black"/>
<path fill-rule="evenodd" clip-rule="evenodd" d="M8.625 3.70455V2H9.375V3.70455H8.625Z" fill="black"/>
<path fill-rule="evenodd" clip-rule="evenodd" d="M8.625 17V15.2954H9.375V17H8.625Z" fill="black"/>
<path fill-rule="evenodd" clip-rule="evenodd" d="M3.20455 9.875H1.5V9.125H3.20455V9.875Z" fill="black"/>
<path fill-rule="evenodd" clip-rule="evenodd" d="M16.4995 9.875H14.7949V9.125H16.4995V9.875Z" fill="black"/>
<path fill-rule="evenodd" clip-rule="evenodd" d="M4.63694 5.66721L3.43164 4.46191L3.96197 3.93158L5.16727 5.13688L4.63694 5.66721Z" fill="black"/>
<path fill-rule="evenodd" clip-rule="evenodd" d="M14.0373 15.0683L12.832 13.863L13.3624 13.3327L14.5677 14.538L14.0373 15.0683Z" fill="black"/>
<path fill-rule="evenodd" clip-rule="evenodd" d="M13.3631 5.66721L14.5684 4.46191L14.038 3.93158L12.8327 5.13688L13.3631 5.66721Z" fill="black"/>
<path fill-rule="evenodd" clip-rule="evenodd" d="M3.96072 15.0683L5.16602 13.863L4.63569 13.3327L3.43039 14.538L3.96072 15.0683Z" fill="black"/>
</svg>
