<svg width="110" height="19" viewBox="0 0 110 19" fill="none" xmlns="http://www.w3.org/2000/svg">
<path d="M5.448 18V3.432H9.384V18H5.448ZM0.528 3.912V0.48H14.328V3.912H0.528ZM20.7079 18.456C19.5879 18.456 18.5959 18.264 17.7319 17.88C16.8839 17.496 16.1719 16.984 15.5959 16.344C15.0359 15.688 14.6039 14.96 14.2999 14.16C14.0119 13.344 13.8679 12.512 13.8679 11.664V11.184C13.8679 10.304 14.0119 9.464 14.2999 8.664C14.6039 7.848 15.0359 7.12 15.5959 6.48C16.1559 5.84 16.8519 5.336 17.6839 4.968C18.5319 4.584 19.4919 4.392 20.5639 4.392C21.9719 4.392 23.1559 4.712 24.1159 5.352C25.0919 5.976 25.8359 6.8 26.3479 7.824C26.8599 8.832 27.1159 9.936 27.1159 11.136V12.432H15.4759V10.248H24.7879L23.5399 11.256C23.5399 10.472 23.4279 9.8 23.2039 9.24C22.9799 8.68 22.6439 8.256 22.1959 7.968C21.7639 7.664 21.2199 7.512 20.5639 7.512C19.8919 7.512 19.3239 7.664 18.8599 7.968C18.3959 8.272 18.0439 8.72 17.8039 9.312C17.5639 9.888 17.4439 10.6 17.4439 11.448C17.4439 12.232 17.5559 12.92 17.7799 13.512C18.0039 14.088 18.3559 14.536 18.8359 14.856C19.3159 15.176 19.9399 15.336 20.7079 15.336C21.4119 15.336 21.9879 15.2 22.4359 14.928C22.8839 14.656 23.1879 14.32 23.3479 13.92H26.8759C26.6839 14.8 26.3079 15.584 25.7479 16.272C25.1879 16.96 24.4839 17.496 23.6359 17.88C22.7879 18.264 21.8119 18.456 20.7079 18.456ZM27.8861 18L31.9661 10.944L31.8701 11.544L28.0301 4.848H32.1821L34.5581 9.312H34.9421L37.1741 4.848H41.0861L37.4141 11.592L37.5101 11.088L41.8301 18H37.6541L34.8221 13.224H34.4381L31.7741 18H27.8861ZM49.4064 18.168C48.0784 18.168 47.0064 18.008 46.1904 17.688C45.3744 17.352 44.7744 16.8 44.3904 16.032C44.0224 15.248 43.8384 14.192 43.8384 12.864V1.296H47.4144V13.008C47.4144 13.632 47.5744 14.112 47.8944 14.448C48.2304 14.768 48.7024 14.928 49.3104 14.928H51.2544V18.168H49.4064ZM41.8464 7.656V4.848H51.2544V7.656H41.8464ZM59.9578 18.456C58.8058 18.456 57.7818 18.28 56.8858 17.928C55.9898 17.56 55.2298 17.064 54.6058 16.44C53.9978 15.816 53.5338 15.104 53.2138 14.304C52.8938 13.488 52.7338 12.632 52.7338 11.736V11.184C52.7338 10.272 52.8938 9.408 53.2138 8.592C53.5498 7.76 54.0298 7.032 54.6538 6.408C55.2938 5.784 56.0618 5.296 56.9578 4.944C57.8538 4.576 58.8538 4.392 59.9578 4.392C61.0938 4.392 62.1018 4.576 62.9818 4.944C63.8778 5.296 64.6378 5.784 65.2618 6.408C65.8858 7.032 66.3658 7.76 66.7018 8.592C67.0378 9.408 67.2058 10.272 67.2058 11.184V11.736C67.2058 12.632 67.0458 13.488 66.7258 14.304C66.4058 15.104 65.9338 15.816 65.3098 16.44C64.7018 17.064 63.9498 17.56 63.0538 17.928C62.1578 18.28 61.1258 18.456 59.9578 18.456ZM59.9578 15.216C60.7098 15.216 61.3338 15.056 61.8298 14.736C62.3258 14.416 62.7018 13.968 62.9578 13.392C63.2298 12.816 63.3658 12.176 63.3658 11.472C63.3658 10.72 63.2298 10.064 62.9578 9.504C62.6858 8.928 62.2938 8.472 61.7818 8.136C61.2858 7.8 60.6778 7.632 59.9578 7.632C59.2538 7.632 58.6458 7.8 58.1338 8.136C57.6218 8.472 57.2298 8.928 56.9578 9.504C56.7018 10.064 56.5738 10.72 56.5738 11.472C56.5738 12.176 56.7018 12.816 56.9578 13.392C57.2138 13.968 57.5978 14.416 58.1098 14.736C58.6218 15.056 59.2378 15.216 59.9578 15.216ZM76.0538 18.456C74.9018 18.456 73.8778 18.28 72.9818 17.928C72.0858 17.56 71.3258 17.064 70.7018 16.44C70.0938 15.816 69.6298 15.104 69.3098 14.304C68.9898 13.488 68.8298 12.632 68.8298 11.736V11.184C68.8298 10.272 68.9898 9.408 69.3098 8.592C69.6458 7.76 70.1258 7.032 70.7498 6.408C71.3898 5.784 72.1578 5.296 73.0538 4.944C73.9498 4.576 74.9498 4.392 76.0538 4.392C77.1898 4.392 78.1978 4.576 79.0778 4.944C79.9738 5.296 80.7338 5.784 81.3578 6.408C81.9818 7.032 82.4618 7.76 82.7978 8.592C83.1338 9.408 83.3018 10.272 83.3018 11.184V11.736C83.3018 12.632 83.1418 13.488 82.8218 14.304C82.5018 15.104 82.0298 15.816 81.4058 16.44C80.7978 17.064 80.0458 17.56 79.1498 17.928C78.2538 18.28 77.2218 18.456 76.0538 18.456ZM76.0538 15.216C76.8058 15.216 77.4298 15.056 77.9258 14.736C78.4218 14.416 78.7978 13.968 79.0538 13.392C79.3258 12.816 79.4618 12.176 79.4618 11.472C79.4618 10.72 79.3258 10.064 79.0538 9.504C78.7818 8.928 78.3898 8.472 77.8778 8.136C77.3818 7.8 76.7738 7.632 76.0538 7.632C75.3498 7.632 74.7418 7.8 74.2298 8.136C73.7178 8.472 73.3258 8.928 73.0538 9.504C72.7978 10.064 72.6698 10.72 72.6698 11.472C72.6698 12.176 72.7978 12.816 73.0538 13.392C73.3098 13.968 73.6938 14.416 74.2058 14.736C74.7178 15.056 75.3338 15.216 76.0538 15.216ZM85.9097 18V0.48H89.7737V18H85.9097ZM84.3497 3.312V0.48H89.7737V3.312H84.3497ZM98.064 18.408C96.192 18.408 94.728 18.024 93.672 17.256C92.616 16.488 92.056 15.408 91.992 14.016H95.4C95.464 14.432 95.712 14.808 96.144 15.144C96.592 15.464 97.256 15.624 98.136 15.624C98.808 15.624 99.36 15.512 99.792 15.288C100.24 15.048 100.464 14.712 100.464 14.28C100.464 13.896 100.296 13.592 99.96 13.368C99.624 13.128 99.024 12.96 98.16 12.864L97.128 12.768C95.544 12.608 94.352 12.168 93.552 11.448C92.768 10.728 92.376 9.808 92.376 8.688C92.376 7.76 92.608 6.984 93.072 6.36C93.536 5.736 94.176 5.264 94.992 4.944C95.824 4.624 96.768 4.464 97.824 4.464C99.52 4.464 100.888 4.84 101.928 5.592C102.968 6.328 103.512 7.4 103.56 8.808H100.152C100.088 8.376 99.864 8.016 99.48 7.728C99.096 7.424 98.528 7.272 97.776 7.272C97.184 7.272 96.712 7.384 96.36 7.608C96.008 7.832 95.832 8.136 95.832 8.52C95.832 8.888 95.984 9.168 96.288 9.36C96.592 9.552 97.088 9.688 97.776 9.768L98.808 9.864C100.424 10.04 101.68 10.488 102.576 11.208C103.472 11.928 103.92 12.896 103.92 14.112C103.92 14.992 103.68 15.76 103.2 16.416C102.72 17.056 102.04 17.552 101.16 17.904C100.28 18.24 99.248 18.408 98.064 18.408ZM105.38 18V13.704H109.604V18H105.38Z" fill="black"/>
</svg>
