<svg width="183" height="31" viewBox="0 0 183 31" fill="none" xmlns="http://www.w3.org/2000/svg">
<path d="M8.58 30V5.72H15.14V30H8.58ZM0.38 6.52V0.799999H23.38V6.52H0.38ZM34.0131 30.76C32.1465 30.76 30.4931 30.44 29.0531 29.8C27.6398 29.16 26.4531 28.3067 25.4931 27.24C24.5598 26.1467 23.8398 24.9333 23.3331 23.6C22.8531 22.24 22.6131 20.8533 22.6131 19.44V18.64C22.6131 17.1733 22.8531 15.7733 23.3331 14.44C23.8398 13.08 24.5598 11.8667 25.4931 10.8C26.4265 9.73333 27.5865 8.89333 28.9731 8.28C30.3865 7.64 31.9865 7.32 33.7731 7.32C36.1198 7.32 38.0931 7.85333 39.6931 8.92C41.3198 9.96 42.5598 11.3333 43.4131 13.04C44.2665 14.72 44.6931 16.56 44.6931 18.56V20.72H25.2931V17.08H40.8131L38.7331 18.76C38.7331 17.4533 38.5465 16.3333 38.1731 15.4C37.7998 14.4667 37.2398 13.76 36.4931 13.28C35.7731 12.7733 34.8665 12.52 33.7731 12.52C32.6531 12.52 31.7065 12.7733 30.9331 13.28C30.1598 13.7867 29.5731 14.5333 29.1731 15.52C28.7731 16.48 28.5731 17.6667 28.5731 19.08C28.5731 20.3867 28.7598 21.5333 29.1331 22.52C29.5065 23.48 30.0931 24.2267 30.8931 24.76C31.6931 25.2933 32.7331 25.56 34.0131 25.56C35.1865 25.56 36.1465 25.3333 36.8931 24.88C37.6398 24.4267 38.1465 23.8667 38.4131 23.2H44.2931C43.9731 24.6667 43.3465 25.9733 42.4131 27.12C41.4798 28.2667 40.3065 29.16 38.8931 29.8C37.4798 30.44 35.8531 30.76 34.0131 30.76ZM45.9769 30L52.7769 18.24L52.6169 19.24L46.2169 8.08H53.1369L57.0969 15.52H57.7369L61.4569 8.08H67.9769L61.8569 19.32L62.0169 18.48L69.2169 30H62.2569L57.5369 22.04H56.8969L52.4569 30H45.9769ZM81.8441 30.28C79.6307 30.28 77.8441 30.0133 76.4841 29.48C75.1241 28.92 74.1241 28 73.4841 26.72C72.8707 25.4133 72.5641 23.6533 72.5641 21.44V2.16H78.5241V21.68C78.5241 22.72 78.7907 23.52 79.3241 24.08C79.8841 24.6133 80.6707 24.88 81.6841 24.88H84.9241V30.28H81.8441ZM69.2441 12.76V8.08H84.9241V12.76H69.2441ZM99.4297 30.76C97.5097 30.76 95.803 30.4667 94.3097 29.88C92.8164 29.2667 91.5497 28.44 90.5097 27.4C89.4964 26.36 88.723 25.1733 88.1897 23.84C87.6564 22.48 87.3897 21.0533 87.3897 19.56V18.64C87.3897 17.12 87.6564 15.68 88.1897 14.32C88.7497 12.9333 89.5497 11.72 90.5897 10.68C91.6564 9.64 92.9364 8.82667 94.4297 8.24C95.923 7.62667 97.5897 7.32 99.4297 7.32C101.323 7.32 103.003 7.62667 104.47 8.24C105.963 8.82667 107.23 9.64 108.27 10.68C109.31 11.72 110.11 12.9333 110.67 14.32C111.23 15.68 111.51 17.12 111.51 18.64V19.56C111.51 21.0533 111.243 22.48 110.71 23.84C110.176 25.1733 109.39 26.36 108.35 27.4C107.336 28.44 106.083 29.2667 104.59 29.88C103.096 30.4667 101.376 30.76 99.4297 30.76ZM99.4297 25.36C100.683 25.36 101.723 25.0933 102.55 24.56C103.376 24.0267 104.003 23.28 104.43 22.32C104.883 21.36 105.11 20.2933 105.11 19.12C105.11 17.8667 104.883 16.7733 104.43 15.84C103.976 14.88 103.323 14.12 102.47 13.56C101.643 13 100.63 12.72 99.4297 12.72C98.2564 12.72 97.243 13 96.3897 13.56C95.5364 14.12 94.883 14.88 94.4297 15.84C94.003 16.7733 93.7897 17.8667 93.7897 19.12C93.7897 20.2933 94.003 21.36 94.4297 22.32C94.8564 23.28 95.4964 24.0267 96.3497 24.56C97.203 25.0933 98.2297 25.36 99.4297 25.36ZM126.256 30.76C124.336 30.76 122.63 30.4667 121.136 29.88C119.643 29.2667 118.376 28.44 117.336 27.4C116.323 26.36 115.55 25.1733 115.016 23.84C114.483 22.48 114.216 21.0533 114.216 19.56V18.64C114.216 17.12 114.483 15.68 115.016 14.32C115.576 12.9333 116.376 11.72 117.416 10.68C118.483 9.64 119.763 8.82667 121.256 8.24C122.75 7.62667 124.416 7.32 126.256 7.32C128.15 7.32 129.83 7.62667 131.296 8.24C132.79 8.82667 134.056 9.64 135.096 10.68C136.136 11.72 136.936 12.9333 137.496 14.32C138.056 15.68 138.336 17.12 138.336 18.64V19.56C138.336 21.0533 138.07 22.48 137.536 23.84C137.003 25.1733 136.216 26.36 135.176 27.4C134.163 28.44 132.91 29.2667 131.416 29.88C129.923 30.4667 128.203 30.76 126.256 30.76ZM126.256 25.36C127.51 25.36 128.55 25.0933 129.376 24.56C130.203 24.0267 130.83 23.28 131.256 22.32C131.71 21.36 131.936 20.2933 131.936 19.12C131.936 17.8667 131.71 16.7733 131.256 15.84C130.803 14.88 130.15 14.12 129.296 13.56C128.47 13 127.456 12.72 126.256 12.72C125.083 12.72 124.07 13 123.216 13.56C122.363 14.12 121.71 14.88 121.256 15.84C120.83 16.7733 120.616 17.8667 120.616 19.12C120.616 20.2933 120.83 21.36 121.256 22.32C121.683 23.28 122.323 24.0267 123.176 24.56C124.03 25.0933 125.056 25.36 126.256 25.36ZM142.683 30V0.799999H149.123V30H142.683ZM140.083 5.52V0.799999H149.123V5.52H140.083ZM162.94 30.68C159.82 30.68 157.38 30.04 155.62 28.76C153.86 27.48 152.927 25.68 152.82 23.36H158.5C158.607 24.0533 159.02 24.68 159.74 25.24C160.487 25.7733 161.593 26.04 163.06 26.04C164.18 26.04 165.1 25.8533 165.82 25.48C166.567 25.08 166.94 24.52 166.94 23.8C166.94 23.16 166.66 22.6533 166.1 22.28C165.54 21.88 164.54 21.6 163.1 21.44L161.38 21.28C158.74 21.0133 156.753 20.28 155.42 19.08C154.113 17.88 153.46 16.3467 153.46 14.48C153.46 12.9333 153.847 11.64 154.62 10.6C155.393 9.56 156.46 8.77333 157.82 8.24C159.207 7.70667 160.78 7.44 162.54 7.44C165.367 7.44 167.647 8.06667 169.38 9.32C171.113 10.5467 172.02 12.3333 172.1 14.68H166.42C166.313 13.96 165.94 13.36 165.3 12.88C164.66 12.3733 163.713 12.12 162.46 12.12C161.473 12.12 160.687 12.3067 160.1 12.68C159.513 13.0533 159.22 13.56 159.22 14.2C159.22 14.8133 159.473 15.28 159.98 15.6C160.487 15.92 161.313 16.1467 162.46 16.28L164.18 16.44C166.873 16.7333 168.967 17.48 170.46 18.68C171.953 19.88 172.7 21.4933 172.7 23.52C172.7 24.9867 172.3 26.2667 171.5 27.36C170.7 28.4267 169.567 29.2533 168.1 29.84C166.633 30.4 164.913 30.68 162.94 30.68ZM175.134 30V22.84H182.174V30H175.134Z" fill="white"/>
</svg>
