<svg width="21" height="20" viewBox="0 0 21 20" fill="none" xmlns="http://www.w3.org/2000/svg">
<path fill-rule="evenodd" clip-rule="evenodd" d="M11.8828 2H17.8828V3L16.4356 3.7236C16.0968 3.89299 15.8828 4.23926 15.8828 4.61803V9C15.8828 11.9217 13.3633 14.2665 10.383 13.9755C7.78555 13.722 5.88281 11.3868 5.88281 8.777V4.61803C5.88281 4.23926 5.66881 3.893 5.33002 3.72361L3.88281 3V2H9.88281V3L8.4356 3.72361C8.09681 3.893 7.88281 4.23926 7.88281 4.61803V9C7.88281 10.8499 9.5655 12.3139 11.4807 11.9418C12.905 11.6652 13.8828 10.3325 13.8828 8.8816V4.61803C13.8828 4.23926 13.6688 3.893 13.33 3.72361L11.8828 3V2ZM2.88281 16H18.8828V18H2.88281V16Z" fill="#374151"/>
</svg>
