<svg width="25" height="24" viewBox="0 0 25 24" fill="none" xmlns="http://www.w3.org/2000/svg">
<path fill-rule="evenodd" clip-rule="evenodd" d="M11.0593 4.29303C11.2468 4.48056 11.3521 4.73487 11.3521 5.00003C11.3521 5.26519 11.2468 5.5195 11.0593 5.70703L8.76632 8.00003H13.8523C15.311 8.00003 16.71 8.57949 17.7414 9.61094C18.7729 10.6424 19.3523 12.0413 19.3523 13.5C19.3523 14.9587 18.7729 16.3577 17.7414 17.3891C16.71 18.4206 15.311 19 13.8523 19H11.3523C11.0871 19 10.8328 18.8947 10.6452 18.7071C10.4577 18.5196 10.3523 18.2652 10.3523 18C10.3523 17.7348 10.4577 17.4805 10.6452 17.2929C10.8328 17.1054 11.0871 17 11.3523 17H13.8523C14.7806 17 15.6708 16.6313 16.3272 15.9749C16.9836 15.3185 17.3523 14.4283 17.3523 13.5C17.3523 12.5718 16.9836 11.6815 16.3272 11.0252C15.6708 10.3688 14.7806 10 13.8523 10H8.76632L11.0593 12.293C11.2415 12.4816 11.3423 12.7342 11.34 12.9964C11.3377 13.2586 11.2326 13.5094 11.0471 13.6948C10.8617 13.8803 10.6109 13.9854 10.3487 13.9877C10.0865 13.99 9.83393 13.8892 9.64533 13.707L5.64533 9.70703C5.45785 9.5195 5.35254 9.26519 5.35254 9.00003C5.35254 8.73487 5.45785 8.48056 5.64533 8.29303L9.64533 4.29303C9.83285 4.10556 10.0872 4.00024 10.3523 4.00024C10.6175 4.00024 10.8718 4.10556 11.0593 4.29303Z" fill="black"/>
</svg>
